# xmcd CD database file
#
# Track frame offsets:
#	150
#	19425
#	36505
#	55727
#	84045
#
# Disc length: 4440 seconds
#
# Revision: 0
# Processed by: cddbd v1.5PL3 Copyright (c) Steve Scherf et al.
# Submitted via: CDex 1.50beta9
#
DISCID=36115605
DTITLE=Various Artist - 仮面ライダー555 3rdエンディングテーマ　EGO 〜eyes glazing over
DYEAR=2003
DGENRE=Soundtrack
TTITLE0=EGO 〜eyes glazing over
TTITLE1=DELTA STRIP 〜White Ring
TTITLE2=EGO 〜eyes glazing over (original karaoke)
TTITLE3=DELTA STRIP 〜White Ring (original laraoke)
TTITLE4=データ
EXTD=YEAR: 2003
EXTT0=
EXTT1=
EXTT2=
EXTT3=
EXTT4=
PLAYORDER=
